<?xml version="1.0" standalone="no"?><!DOCTYPE svg PUBLIC "-//W3C//DTD SVG 1.1//EN" "http://www.w3.org/Graphics/SVG/1.1/DTD/svg11.dtd"><svg t="1607674738895" class="icon" viewBox="0 0 1024 1024" version="1.1" xmlns="http://www.w3.org/2000/svg" p-id="3778" xmlns:xlink="http://www.w3.org/1999/xlink" width="200" height="200"><defs><style type="text/css"></style></defs><path d="M512 1024c-282.624 0-512-229.376-512-512s229.376-512 512-512 512 229.376 512 512c-0.512 282.624-229.376 511.488-512 512z m-11.776-793.088c-36.864-1.536-68.096 27.136-69.632 64-1.536 36.864 27.136 68.096 64 69.632 36.864 1.536 68.096-27.136 69.632-64v-3.072c0.512-35.328-28.16-65.536-64-66.56z m151.552 494.592h-64v-276.992h-216.064v67.072h64V726.016h-64v66.56h280.064v-67.072z" p-id="3779"></path></svg>