<?xml version="1.0" standalone="no"?><!DOCTYPE svg PUBLIC "-//W3C//DTD SVG 1.1//EN" "http://www.w3.org/Graphics/SVG/1.1/DTD/svg11.dtd"><svg t="1602058045076" class="icon" viewBox="0 0 1024 1024" version="1.1" xmlns="http://www.w3.org/2000/svg" p-id="9685" xmlns:xlink="http://www.w3.org/1999/xlink" width="200" height="200"><defs><style type="text/css"></style></defs><path d="M329.142857 73.142857h365.714286c18.285714 0 36.571429-18.285714 36.571428-36.571428s-18.285714-36.571429-36.571428-36.571429H329.142857c-18.285714 0-36.571429 18.285714-36.571428 36.571429s18.285714 36.571429 36.571428 36.571428zM438.857143 768V365.714286c0-18.285714-18.285714-36.571429-36.571429-36.571429s-36.571429 18.285714-36.571428 36.571429v402.285714c0 18.285714 18.285714 36.571429 36.571428 36.571429s36.571429-18.285714 36.571429-36.571429zM658.285714 768V365.714286c0-18.285714-18.285714-36.571429-36.571428-36.571429s-36.571429 18.285714-36.571429 36.571429v402.285714c0 18.285714 18.285714 36.571429 36.571429 36.571429s36.571429-18.285714 36.571428-36.571429zM987.428571 182.857143H36.571429c-18.285714 0-36.571429 18.285714-36.571429 36.571428s18.285714 36.571429 36.571429 36.571429h950.857142c18.285714 0 36.571429-18.285714 36.571429-36.571429s-18.285714-36.571429-36.571429-36.571428z" p-id="9686"></path><path d="M841.142857 329.142857c-21.942857 0-36.571429 14.628571-36.571428 36.571429v555.885714c0 14.628571-14.628571 29.257143-29.257143 29.257143H248.685714c-14.628571 0-29.257143-14.628571-29.257143-29.257143V365.714286c0-21.942857-14.628571-36.571429-36.571428-36.571429s-36.571429 14.628571-36.571429 36.571429v555.885714C146.285714 976.457143 193.828571 1024 248.685714 1024h526.628572c54.857143 0 102.4-47.542857 102.4-102.4V365.714286c0-21.942857-14.628571-36.571429-36.571429-36.571429z" p-id="9687"></path></svg>