<?xml version="1.0" standalone="no"?><!DOCTYPE svg PUBLIC "-//W3C//DTD SVG 1.1//EN" "http://www.w3.org/Graphics/SVG/1.1/DTD/svg11.dtd"><svg t="1602057588762" class="icon" viewBox="0 0 1024 1024" version="1.1" xmlns="http://www.w3.org/2000/svg" p-id="6555" xmlns:xlink="http://www.w3.org/1999/xlink" width="200" height="200"><defs><style type="text/css"></style></defs><path d="M894.077526 903.008784c0 31.839794-25.471835 57.311629-63.679588 57.311629L123.554516 960.320412C91.714722 960.320412 66.242887 934.848577 66.242887 903.008784L66.242887 196.165361c0-31.839794 25.471835-63.679588 57.311629-63.679588L639.359175 132.485773 639.359175 68.806186 123.554516 68.806186C59.874928 68.806186 2.563299 126.117815 2.563299 196.165361l0 706.843422C2.563299 966.688371 59.874928 1024 123.554516 1024L830.397938 1024c70.047546 0 127.359175-57.311629 127.359175-120.991216L957.757113 387.204124l-63.679588 0L894.077526 903.008784z" p-id="6556"></path><path d="M1002.332825 68.806186l-44.575711-44.575711C938.653237 5.126598 925.917319-7.609319 913.181402 5.126598L894.077526 30.598433 995.964866 132.485773l19.103876-19.103876C1027.80466 94.278021 1015.068742 81.542103 1002.332825 68.806186z" p-id="6557"></path><path d="M378.272866 540.035134 365.536948 552.771052 333.697155 692.866144 467.424289 661.026351 480.160206 641.922474 964.125072 164.325567 855.869773 62.438227Z" p-id="6558"></path></svg>
