<?xml version="1.0" standalone="no"?><!DOCTYPE svg PUBLIC "-//W3C//DTD SVG 1.1//EN" "http://www.w3.org/Graphics/SVG/1.1/DTD/svg11.dtd"><svg t="1607504443700" class="icon" viewBox="0 0 1024 1024" version="1.1" xmlns="http://www.w3.org/2000/svg" p-id="1072" xmlns:xlink="http://www.w3.org/1999/xlink" width="200" height="200"><defs><style type="text/css"></style></defs><path d="M836.48 211.264c0 99.072-180.032 179.328-402.176 179.328C212.224 390.592 32 310.4 32 211.264 32.064 112.32 212.16 32 434.304 32c222.08 0 402.24 80.32 402.24 179.264z m-309.056 658.56a74.496 74.496 0 0 1-54.592-58.368c-12.8 0.576-25.664 0.896-38.528 0.896C212.096 812.288 32 732.032 32 632.96v137.088c0 99.072 180.032 179.264 402.24 179.264 32 0 62.912-1.792 92.8-4.992a73.984 73.984 0 0 1 0.32-74.496z" p-id="1073"></path><path d="M432.832 751.744c12.544 0 24.832-0.32 37.12-0.832v-20.16c0-33.728 23.36-62.848 56.064-70.848a72.064 72.064 0 0 1-9.728-46.528c-26.88 2.56-54.784 3.84-83.456 3.84C211.456 617.216 32 538.496 32 441.216v134.592c0 97.216 179.392 176 400.768 176z" p-id="1074"></path><path d="M434.048 574.528c39.68 0 78.08-2.688 114.24-7.488l30.08-30.08c23.808-24.128 60.928-28.8 90.048-11.712 8.576-32.704 38.08-55.68 71.872-55.68h55.744c1.024 0 2.048 0.32 3.008 0.32 23.488-22.784 36.928-48.128 36.928-74.88V257.92c0 99.2-179.904 179.52-401.984 179.52C211.84 437.312 32 356.928 32 257.792v137.216c0 99.2 179.904 179.52 401.92 179.52z m557.696 220.864v-55.936l-66.368-10.88a161.024 161.024 0 0 0-18.24-44.16l38.656-55.232-39.424-39.616-54.4 39.296a160.448 160.448 0 0 0-44.224-18.496l-11.648-66.24h-55.68L729.6 610.176a159.552 159.552 0 0 0-44.352 18.24l-54.4-38.848-39.36 39.616 38.208 54.72a160 160 0 0 0-18.56 44.608l-65.536 10.88v56l65.536 11.648c3.84 16 10.176 31.04 18.56 44.736l-38.784 54.208 39.424 39.68 54.72-38.4c13.696 8.192 28.544 14.4 44.352 18.304l10.88 66.112h55.808l11.712-66.24a160 160 0 0 0 44.16-18.56l55.04 38.784 39.36-39.68-39.296-54.656c8.128-13.632 14.272-28.416 18.176-44.288l66.496-11.584v-0.064z m-223.104 50.56a77.952 77.952 0 0 1-77.76-78.08c0-43.136 34.752-78.08 77.76-78.08s77.824 34.944 77.824 78.08c0 43.072-34.816 78.08-77.824 78.08z" p-id="1075"></path></svg>