<?xml version="1.0" standalone="no"?><!DOCTYPE svg PUBLIC "-//W3C//DTD SVG 1.1//EN" "http://www.w3.org/Graphics/SVG/1.1/DTD/svg11.dtd"><svg t="1607504427570" class="icon" viewBox="0 0 1024 1024" version="1.1" xmlns="http://www.w3.org/2000/svg" p-id="870" xmlns:xlink="http://www.w3.org/1999/xlink" width="200" height="200"><defs><style type="text/css"></style></defs><path d="M1007.801863 754.519666l-3.537897-9.034273a118.456365 118.456365 0 0 0-16.046889-34.115433 149.918376 149.918376 0 0 0-20.090199-29.187648l-7.075794-7.012617-56.227288 6.94944c-11.055927 0-23.628096-6.94944-27.165993-18.005368l-18.068545-52.247154-11.055927-2.021655a237.860382 237.860382 0 0 0-88.44742 0l-9.034272 2.021655-20.090199 54.205633a24.828454 24.828454 0 0 1-27.165993 16.110066l-54.205633-9.034272-7.075794 7.012616c-16.046889 20.0902-27.102816 41.696641-36.137088 65.324737l-3.537897 9.034273 36.200265 43.212882a27.924114 27.924114 0 0 1 0 32.662368l-36.200265 43.212882 3.537897 9.034273c3.537897 12.572169 9.034272 25.144338 16.046889 36.137088 5.559552 11.055927 12.635346 20.153376 20.090199 29.187649l7.075794 7.012616 56.227288-9.034272a25.397045 25.397045 0 0 1 27.165993 16.046889l18.068544 54.331987 11.055928 1.958478c29.124472 7.012617 61.281426 7.012617 90.469075 0l9.034272-2.021655 18.068544-54.26881a24.828454 24.828454 0 0 1 27.165993-16.046889l54.205633 9.034272 7.075794-9.034272c14.530647-18.068544 27.165993-39.674985 34.115433-63.303081l3.537897-9.034273-34.115434-41.69664a27.924114 27.924114 0 0 1 0-32.662369l36.137089-44.729123z m-200.965173 134.124194a71.64241 71.64241 0 0 1-72.842767-72.842768c0-41.191227 31.588364-72.842768 72.842767-72.842768 41.191227 0 72.842768 31.651541 72.842768 72.842768s-31.651541 72.842768-72.842768 72.842768z" p-id="871"></path><path d="M893.262455 63.682142H117.515408A114.476232 114.476232 0 0 0 2.976 178.284727v515.96434c0 63.303082 51.236327 114.539408 114.539408 114.539408h287.390937v114.539409h-57.301292a28.619058 28.619058 0 1 0 0 57.301292h255.739396l-1.010828-1.010828c-8.023444-10.108277-16.552303-20.595613-24.070333-35.189437a177.400253 177.400253 0 0 1-20.658791-45.234538l-2.527069-7.012617-11.498164-28.113644 19.584785-23.628096 22.617269-27.165993-22.617269-27.102817-19.584785-23.628096 5.054138-12.003578H117.452232a57.238116 57.238116 0 0 1-57.238116-57.301293v-57.301292h553.112256l18.573958-18.573958 26.155165 4.548724 32.662369 5.496375 12.572169-34.115433 10.0451-26.660579 28.113644-5.559552 9.034272-1.958479h1.010827c17.56313-3.537897 35.694851-5.054138 53.763396-5.054138 18.068544 0 35.694851 1.516241 53.257982 5.054138l10.550514 1.453065 30.135299 5.054138 10.108277 28.619058 11.498164 33.673196 34.684024-4.548724 25.081161-2.969306 17.626307 17.56313 7.012617 7.012617 2.021655 2.021655 1.516242 2.021655V178.284727a115.992473 115.992473 0 0 0-115.613413-114.602585z" p-id="872"></path></svg>