<?xml version="1.0" standalone="no"?><!DOCTYPE svg PUBLIC "-//W3C//DTD SVG 1.1//EN" "http://www.w3.org/Graphics/SVG/1.1/DTD/svg11.dtd"><svg t="1607504533346" class="icon" viewBox="0 0 1024 1024" version="1.1" xmlns="http://www.w3.org/2000/svg" p-id="1275" xmlns:xlink="http://www.w3.org/1999/xlink" width="200" height="200"><defs><style type="text/css"></style></defs><path d="M989.44 601.088a62.72 62.72 0 0 1 25.92 74.176 569.344 569.344 0 0 1-38.336 86.848c-14.272 24.96-34.432 52.096-55.552 77.568-19.2 22.848-51.2 30.144-78.464 17.984-68.608-30.528-149.568-5.12-185.856 58.432a141.952 141.952 0 0 0-15.04 48.512 65.024 65.024 0 0 1-65.28 55.296l-137.6-0.64a65.216 65.216 0 0 1-63.168-47.744c-4.48-16-10.24-31.616-17.408-46.656-15.744-33.472-33.728-54.528-52.096-64.384-18.176-9.792-45.824-13.568-83.008-9.024a308.352 308.352 0 0 0-49.6 10.048 66.56 66.56 0 0 1-74.688-27.2L28.8 724.864a62.464 62.464 0 0 1 13.824-82.816c13.376-10.752 26.752-24.768 34.496-38.208 36.16-63.552 15.616-143.744-47.552-184.064A62.72 62.72 0 0 1 3.712 345.6c11.008-30.72 24.064-61.952 38.336-86.976a576 576 0 0 1 55.552-77.568c19.2-22.784 51.2-30.144 78.464-17.92 68.608 30.528 149.568 5.056 185.856-58.496 7.68-13.44 12.8-31.808 15.04-48.448A65.024 65.024 0 0 1 442.56 1.024L583.296 1.92c29.248 0.192 54.784 19.136 62.72 46.528 3.392 11.968 9.472 28.224 17.792 45.12 15.936 32.064 33.664 52.352 51.456 61.952 17.664 9.536 44.544 13.44 80.64 9.792 19.008-1.92 36.16-5.44 48.192-8.832a66.56 66.56 0 0 1 73.728 27.392l72.32 111.936a62.464 62.464 0 0 1-13.696 83.008 146.88 146.88 0 0 0-34.368 38.08c-36.288 63.616-15.616 143.744 47.36 184.128zM511.36 701.376c108.672 0 196.672-85.568 196.672-191.104 0-105.6-88.064-191.104-196.736-191.104-87.36 0-160.64 55.68-186.24 132.224a63.744 63.744 0 0 0-40.64 58.88c0 35.2 29.312 63.68 65.6 63.68 36.224 0 65.536-28.544 65.536-63.68a62.528 62.528 0 0 0-25.024-49.728 131.2 131.2 0 0 1 120.768-77.632c72.448 0 131.2 57.024 131.2 127.36 0 70.4-58.752 127.36-131.2 127.36-28.48 0-55.296-8.704-77.76-24.704l-0.384 0.576a32.64 32.64 0 0 0-32.448-4.48 31.872 31.872 0 0 0-20.032 29.312c0 10.752 5.888 19.84 14.272 25.6l-0.256 0.32c32.64 23.296 72.96 37.12 116.608 37.12z" p-id="1276"></path></svg>