<?xml version="1.0" standalone="no"?><!DOCTYPE svg PUBLIC "-//W3C//DTD SVG 1.1//EN" "http://www.w3.org/Graphics/SVG/1.1/DTD/svg11.dtd"><svg t="1605227528564" class="icon" viewBox="0 0 1024 1024" version="1.1" xmlns="http://www.w3.org/2000/svg" p-id="1562" xmlns:xlink="http://www.w3.org/1999/xlink" width="200" height="200"><defs><style type="text/css"></style></defs><path d="M458.759 127.075L149.194 345.178c-23.974 16.885-38.223 44.317-38.223 73.567v416.367c0 22.442 18.259 40.633 40.779 40.633h196.4c31.416 0 56.88-25.374 56.88-56.677V769.89c0-22.44 18.259-40.633 40.784-40.633h130.313c22.523 0 40.784 18.193 40.784 40.633v49.179c0 31.303 25.464 56.677 56.88 56.677h196.4c22.52 0 40.779-18.191 40.779-40.633V418.745c0-29.25-14.249-56.682-38.223-73.567L563.183 127.075c-31.292-22.047-73.132-22.047-104.424 0z" fill="#FFA820" p-id="1563"></path><path d="M110.971 773.417v61.695c0 22.442 18.259 40.633 40.779 40.633h36.999a434.815 434.815 0 0 1-77.778-102.328zM910.971 418.745c0-29.25-14.249-56.682-38.223-73.567l-14.934-10.522c23.751 37.647 41.866 79.204 53.156 123.49v-39.401zM585.035 142.471l-21.852-15.395c-31.292-22.047-73.132-22.047-104.424 0l-10.322 7.272a438.35 438.35 0 0 1 42.706-2.085c32.241-0.001 63.659 3.527 93.892 10.208zM910.971 835.112V672.854c-19.976 78.356-61.308 148.175-117.436 202.891h76.657c22.52 0 40.779-18.191 40.779-40.633z" fill="#FEAC33" p-id="1564"></path><path d="M110.971 640.001v133.416c20.78 37.914 47.062 72.384 77.778 102.328h109.215C206.6 827.358 137.702 742.207 110.971 640.001zM910.971 672.854V458.146c-11.29-44.286-29.406-85.843-53.156-123.49L585.035 142.47c-30.233-6.68-61.65-10.208-93.892-10.208-14.411 0-28.656 0.711-42.706 2.085l-69.058 48.654c29.829-7.664 61.097-11.741 93.318-11.741 206.484 0 373.873 167.389 373.873 373.873 0 140.713-77.738 263.266-192.607 327.065a56.934 56.934 0 0 0 19.83 3.546h119.743c56.127-54.715 97.459-124.534 117.435-202.89zM149.193 345.178c-23.974 16.885-38.223 44.317-38.223 73.567v31.523c10.879-41.594 28.739-80.362 52.257-114.978l-14.034 9.888z" fill="#FEB133" p-id="1565"></path><path d="M846.569 545.135c0-206.484-167.389-373.873-373.873-373.873-32.22 0-63.489 4.076-93.318 11.741L163.228 335.29c-23.518 34.616-41.379 73.385-52.257 114.978v189.733c26.731 102.206 95.629 187.357 186.993 235.744h50.186c25.843 0 47.645-17.177 54.571-40.693-149.181-24.591-262.979-154.137-262.979-310.283 0-173.698 140.81-314.508 314.508-314.508s314.508 140.81 314.508 314.508c0 114.165-60.832 214.118-151.847 269.226v25.074c0 24.352 15.414 45.11 37.05 53.131 114.87-63.8 192.608-186.353 192.608-327.065z" fill="#FEB633" p-id="1566"></path><path d="M768.758 524.769c0-173.698-140.81-314.508-314.508-314.508s-314.508 140.81-314.508 314.508c0 156.146 113.799 285.692 262.979 310.283a56.494 56.494 0 0 0 2.309-15.983V769.89c0-4.173 0.634-8.199 1.807-11.989-127.27-14.386-226.177-122.382-226.177-253.497 0-140.912 114.232-255.144 255.144-255.144s255.144 114.232 255.144 255.144c0 97.262-54.428 181.804-134.482 224.853h19.662c22.523 0 40.784 18.193 40.784 40.633v24.105c91.015-55.108 151.846-155.061 151.846-269.226z" fill="#FFBC34" p-id="1567"></path><path d="M690.948 504.404c0-140.912-114.232-255.144-255.144-255.144S180.66 363.492 180.66 504.404c0 131.115 98.907 239.112 226.176 253.497 5.135-16.588 20.642-28.644 38.978-28.644h110.651c80.055-43.05 134.483-127.592 134.483-224.853z m-273.59 175.413c-108.126 0-195.779-87.653-195.779-195.779s87.653-195.779 195.779-195.779 195.779 87.653 195.779 195.779-87.653 195.779-195.779 195.779z" fill="#FFC134" p-id="1568"></path><path d="M417.358 288.259c-108.126 0-195.779 87.653-195.779 195.779s87.653 195.779 195.779 195.779 195.779-87.653 195.779-195.779-87.653-195.779-195.779-195.779z m-18.446 311.828c-75.339 0-136.414-61.075-136.414-136.414s61.075-136.414 136.414-136.414 136.414 61.075 136.414 136.414-61.075 136.414-136.414 136.414z" fill="#FFC634" p-id="1569"></path><path d="M398.912 463.672m-136.414 0a136.414 136.414 0 1 0 272.828 0 136.414 136.414 0 1 0-272.828 0Z" fill="#FFCB34" p-id="1570"></path><path d="M510.971 128.54c15.072 0 29.542 4.582 41.845 13.25l309.568 218.104c19.153 13.49 30.587 35.49 30.587 58.851v416.367c0 12.48-10.219 22.633-22.779 22.633h-196.4c-21.439 0-38.88-17.35-38.88-38.677V769.89c0-32.33-26.371-58.633-58.784-58.633H445.814c-32.414 0-58.784 26.303-58.784 58.633v49.179c0 21.326-17.441 38.677-38.88 38.677h-196.4c-12.56 0-22.779-10.153-22.779-22.633V418.745c0-23.361 11.435-45.361 30.59-58.852L469.126 141.79c12.303-8.668 26.773-13.25 41.845-13.25m0-18c-18.283 0-36.566 5.512-52.212 16.535L149.193 345.178c-23.974 16.885-38.223 44.316-38.223 73.567v416.367c0 22.442 18.259 40.633 40.779 40.633h196.4c31.416 0 56.88-25.374 56.88-56.677V769.89c0-22.44 18.259-40.633 40.784-40.633h130.313c22.523 0 40.784 18.193 40.784 40.633v49.179c0 31.303 25.464 56.677 56.88 56.677h196.4c22.52 0 40.779-18.191 40.779-40.633V418.745c0-29.25-14.249-56.682-38.223-73.567L563.183 127.075c-15.646-11.023-33.929-16.535-52.212-16.535z" fill="#FFA820" p-id="1571"></path><path d="M226.458 455.616c-6.152 0-11.14-4.987-11.14-11.14v-2.977c0-22.057 10.532-42.743 28.25-55.477l228.81-164.468c23.058-16.574 54.124-16.574 77.183 0l228.81 164.468c17.718 12.734 28.25 33.419 28.25 55.477v2.977c0 6.152-4.987 11.14-11.14 11.14H226.458z" fill="#FFE3B4" p-id="1572"></path><path d="M175.98 664.124c-9.934 0-17.992-8.049-18-17.985l-0.101-124.121c-0.008-9.941 8.044-18.006 17.985-18.015h0.015c9.934 0 17.992 8.049 18 17.985l0.101 124.121c0.008 9.941-8.044 18.007-17.985 18.015h-0.015zM176.037 734.606c-9.935 0-17.991-8.049-18-17.985l-0.009-10.546c-0.008-9.94 8.044-18.007 17.985-18.015h0.016c9.934 0 17.991 8.049 18 17.985l0.009 10.546c0.008 9.94-8.044 18.006-17.985 18.015h-0.016z" fill="#FFFFFF" p-id="1573"></path></svg>