<?xml version="1.0" standalone="no"?><!DOCTYPE svg PUBLIC "-//W3C//DTD SVG 1.1//EN" "http://www.w3.org/Graphics/SVG/1.1/DTD/svg11.dtd"><svg t="1607669212009" class="icon" viewBox="0 0 1024 1024" version="1.1" xmlns="http://www.w3.org/2000/svg" p-id="1301" xmlns:xlink="http://www.w3.org/1999/xlink" width="200" height="200"><defs><style type="text/css"></style></defs><path d="M512 42.666667c153.173333 0 277.333333 124.16 277.333333 277.333333v106.666667h32a74.666667 74.666667 0 0 1 74.666667 74.666666v405.333334a74.666667 74.666667 0 0 1-74.666667 74.666666h-618.666666A74.666667 74.666667 0 0 1 128 906.666667v-405.333334A74.666667 74.666667 0 0 1 202.666667 426.666667H234.666667v-106.666667c0-153.173333 124.16-277.333333 277.333333-277.333333z m309.333333 448h-618.666666a10.666667 10.666667 0 0 0-10.666667 10.666666v405.333334a10.666667 10.666667 0 0 0 10.666667 10.666666h618.666666a10.666667 10.666667 0 0 0 10.666667-10.666666v-405.333334a10.666667 10.666667 0 0 0-10.666667-10.666666zM512 608a32 32 0 0 1 32 32v128a32 32 0 0 1-64 0v-128a32 32 0 0 1 32-32zM512 106.666667c-117.824 0-213.333333 95.509333-213.333333 213.333333v106.666667h426.666666v-106.666667c0-117.824-95.509333-213.333333-213.333333-213.333333z" p-id="1302"></path></svg>