<?xml version="1.0" standalone="no"?><!DOCTYPE svg PUBLIC "-//W3C//DTD SVG 1.1//EN" "http://www.w3.org/Graphics/SVG/1.1/DTD/svg11.dtd"><svg t="1605593845247" class="icon" viewBox="0 0 1024 1024" version="1.1" xmlns="http://www.w3.org/2000/svg" p-id="2030" xmlns:xlink="http://www.w3.org/1999/xlink" width="200" height="200"><defs><style type="text/css"></style></defs><path d="M128 256h768c38.4 0 64 25.6 64 64v384c0 38.4-25.6 64-64 64H128c-38.4 0-64-25.6-64-64V320c0-38.4 25.6-64 64-64z" fill="#FFCED0" p-id="2031"></path><path d="M896 819.2H128C64 819.2 12.8 768 12.8 704V320C19.2 256 64 211.2 128 211.2h768c64 0 115.2 51.2 115.2 108.8v384c0 64-51.2 115.2-115.2 115.2z m-768-512c-6.4 0-12.8 6.4-12.8 12.8v384c0 6.4 6.4 12.8 12.8 12.8h768c6.4 0 12.8-6.4 12.8-12.8V320c0-6.4-6.4-12.8-12.8-12.8H128z" fill="#F90000" p-id="2032"></path><path d="M320 64h384c38.4 0 64 25.6 64 64v768c0 38.4-25.6 64-64 64H320c-38.4 0-64-25.6-64-64V128c0-38.4 25.6-64 64-64z" fill="#FFCED0" p-id="2033"></path><path d="M704 1011.2H320c-64 0-115.2-51.2-115.2-115.2V128C211.2 64 256 19.2 320 19.2h384c64 0 115.2 51.2 115.2 115.2v768c0 57.6-51.2 108.8-115.2 108.8z m-384-896c-6.4 0-12.8 6.4-12.8 12.8v768c0 6.4 6.4 12.8 19.2 12.8h384c6.4 0 12.8-6.4 12.8-12.8V128c0-6.4-6.4-12.8-12.8-12.8H320z" fill="#F90000" p-id="2034"></path><path d="M576 595.2H448c-25.6 0-51.2-19.2-51.2-51.2s25.6-44.8 51.2-44.8h128c25.6 0 51.2 19.2 51.2 51.2s-25.6 44.8-51.2 44.8zM576 755.2H448c-25.6 0-51.2-19.2-51.2-51.2s25.6-44.8 51.2-44.8h128c25.6 0 51.2 19.2 51.2 51.2s-25.6 44.8-51.2 44.8z" fill="#F90000" p-id="2035"></path></svg>