<?xml version="1.0" standalone="no"?><!DOCTYPE svg PUBLIC "-//W3C//DTD SVG 1.1//EN" "http://www.w3.org/Graphics/SVG/1.1/DTD/svg11.dtd"><svg t="1605593801459" class="icon" viewBox="0 0 1030 1024" version="1.1" xmlns="http://www.w3.org/2000/svg" p-id="1103" xmlns:xlink="http://www.w3.org/1999/xlink" width="201.171875" height="200"><defs><style type="text/css"></style></defs><path d="M467.2 774.72h96v128H467.2z" fill="#F90000" p-id="1104"></path><path d="M755.2 953.92H294.4c-25.6 0-44.8-19.2-44.8-51.2s19.2-51.2 44.8-51.2h460.8c25.6 0 51.2 19.2 51.2 51.2s-25.6 51.2-51.2 51.2z" fill="#F90000" p-id="1105"></path><path d="M121.6 121.92h800c38.4 0 64 25.6 64 64v480c0 38.4-25.6 64-64 64H121.6c-38.4 0-64-25.6-64-64v-480c0-38.4 25.6-64 64-64z" fill="#FFCED0" p-id="1106"></path><path d="M915.2 774.72H115.2c-64 0-115.2-51.2-115.2-115.2v-473.6c0-64 51.2-115.2 115.2-115.2h800c64 0 115.2 51.2 115.2 115.2v480c0 57.6-51.2 108.8-115.2 108.8z m-800-608c-6.4 0-12.8 6.4-12.8 19.2v480c0 6.4 6.4 12.8 12.8 12.8h800c6.4 0 12.8-6.4 12.8-12.8v-480c0-6.4-6.4-12.8-12.8-12.8H115.2z" fill="#F90000" p-id="1107"></path><path d="M576 601.92L454.4 416.32l-38.4 57.6H198.4c-25.6 0-51.2-19.2-51.2-51.2s25.6-44.8 51.2-44.8h166.4l89.6-140.8 128 204.8 51.2-64h179.2c25.6 0 51.2 19.2 51.2 51.2s-25.6 44.8-51.2 44.8h-134.4l-102.4 128z" fill="#F90000" p-id="1108"></path></svg>