<?xml version="1.0" standalone="no"?><!DOCTYPE svg PUBLIC "-//W3C//DTD SVG 1.1//EN" "http://www.w3.org/Graphics/SVG/1.1/DTD/svg11.dtd"><svg t="1605593773003" class="icon" viewBox="0 0 1024 1024" version="1.1" xmlns="http://www.w3.org/2000/svg" p-id="1103" xmlns:xlink="http://www.w3.org/1999/xlink" width="200" height="200"><defs><style type="text/css"></style></defs><path d="M889.6 514.112c0-51.2 25.6-96 70.4-115.2-25.6-76.8-70.4-153.6-121.6-204.8-38.4 25.6-96 32-140.8 12.8-44.8-25.6-70.4-70.4-64-121.6-38.4-12.8-83.2-19.2-121.6-19.2-44.8 0-83.2 6.4-121.6 19.2 6.4 44.8-19.2 96-64 121.6s-102.4 19.2-140.8-12.8c-57.6 57.6-102.4 128-121.6 204.8 44.8 19.2 70.4 64 70.4 115.2s-25.6 96-70.4 108.8c19.2 76.8 64 153.6 121.6 204.8 38.4-25.6 96-32 140.8-12.8 44.8 25.6 64 70.4 64 121.6 38.4 12.8 83.2 19.2 121.6 19.2 44.8 0 83.2-6.4 121.6-19.2-6.4-44.8 19.2-96 64-121.6s102.4-25.6 140.8 12.8c57.6-57.6 102.4-128 121.6-204.8-44.8-12.8-70.4-57.6-70.4-108.8z" fill="#FFCED0" p-id="1104"></path><path d="M512 1006.912c-44.8 0-96-6.4-134.4-19.2l-38.4-6.4 6.4-38.4c6.4-32-12.8-57.6-38.4-76.8-25.6-12.8-64-6.4-89.6 6.4l-32 25.6-25.6-25.6c-64-64-108.8-147.2-134.4-230.4l-19.2-44.8 38.4-12.8c25.6-6.4 44.8-38.4 44.8-64s-19.2-57.6-44.8-64l-38.4-12.8 12.8-44.8c25.6-83.2 70.4-166.4 134.4-230.4l32-32 32 32c25.6 19.2 57.6 25.6 83.2 6.4 25.6-25.6 44.8-57.6 38.4-89.6v-38.4l38.4-12.8c44.8-12.8 83.2-19.2 134.4-19.2 44.8 0 96 6.4 134.4 19.2l38.4 12.8v38.4c-6.4 32 12.8 57.6 38.4 76.8 25.6 12.8 64 6.4 89.6-6.4l32-25.6 25.6 25.6c64 64 108.8 147.2 134.4 230.4l12.8 44.8-38.4 12.8c-25.6 6.4-44.8 38.4-44.8 64s19.2 57.6 44.8 64l38.4 25.6-12.8 44.8c-25.6 83.2-70.4 166.4-134.4 230.4l-32 32-32-32c-25.6-19.2-57.6-25.6-83.2-6.4-25.6 19.2-44.8 51.2-38.4 76.8l6.4 38.4-38.4 12.8c-51.2 6.4-89.6 12.8-140.8 12.8z m-76.8-102.4c51.2 6.4 102.4 6.4 153.6 0 6.4-51.2 38.4-96 83.2-128 51.2-32 108.8-32 160-12.8 32-38.4 57.6-76.8 70.4-121.6-38.4-32-64-76.8-64-134.4s25.6-102.4 64-134.4c-19.2-44.8-44.8-89.6-76.8-128-51.2 19.2-102.4 19.2-153.6-6.4-44.8-25.6-76.8-70.4-83.2-121.6-51.2-6.4-102.4-6.4-153.6 0-6.4 51.2-38.4 96-83.2 128-44.8 32-108.8 32-153.6 6.4-32 38.4-57.6 83.2-76.8 128 38.4 32 64 76.8 64 134.4s-25.6 102.4-64 134.4c19.2 44.8 44.8 89.6 76.8 128 51.2-19.2 102.4-19.2 153.6 6.4 44.8 25.6 76.8 70.4 83.2 121.6z" fill="#F90000" p-id="1105"></path><path d="M512 680.512c-96 0-166.4-76.8-166.4-166.4s70.4-172.8 166.4-172.8 166.4 76.8 166.4 166.4-70.4 172.8-166.4 172.8z" fill="#FFCED0" p-id="1106"></path><path d="M512 725.312c-121.6 0-217.6-96-217.6-217.6s96-211.2 217.6-211.2 217.6 96 217.6 217.6-96 211.2-217.6 211.2z m0-332.8c-64 0-121.6 51.2-121.6 121.6s57.6 115.2 121.6 115.2 121.6-51.2 121.6-121.6-57.6-115.2-121.6-115.2z" fill="#F90000" p-id="1107"></path></svg>