<?xml version="1.0" standalone="no"?><!DOCTYPE svg PUBLIC "-//W3C//DTD SVG 1.1//EN" "http://www.w3.org/Graphics/SVG/1.1/DTD/svg11.dtd"><svg t="1605237621836" class="icon" viewBox="0 0 1024 1024" version="1.1" xmlns="http://www.w3.org/2000/svg" p-id="1872" xmlns:xlink="http://www.w3.org/1999/xlink" width="200" height="200"><defs><style type="text/css"></style></defs><path d="M855.4 753.2c2.9 8.6 6.4 13 6.4 33.1 0 20 6.9 92.8-19.7 113.1-30.2 23.1-165.9 37-334 39.1-160.5 2-281.9-13.3-314.1-35.1-31-21-20-98.1-14.3-134.8 3.5-21.2 12-37.2 25.8-48.2 13.7-10.8 29.9-19.5 48.5-25.8s37.8-12 57.6-17.2 37.1-12.6 52-22.4c12-7.5 21.3-14.6 27.9-21.5s11.1-13.7 13.7-20.6c2.6-6.9 3.8-14 3.8-21.5s-0.3-15.4-0.9-24.1c-1.2-13.7-5.6-24.4-13.3-31.8-7.8-7.5-16.5-15.2-26.2-23.2-4.6-4-8.6-9.6-12-16.8-3.5-7.2-6.6-14.5-9.5-21.9-3-8.8-5.9-17.7-8.6-26.7-4-1.2-8.1-3.2-12-6-3.5-2.9-7.2-6.9-11.1-12-4-5.2-7.5-12.6-10.3-22.4-2.9-9.8-3.8-18.5-3-26.2 0.9-7.8 2.4-14.5 4.7-20.2 2.3-6.3 5.8-12.3 10.3-18-0.6-21.8 0.6-43.6 3.5-65.3 2.3-18.3 6.4-37.8 12.5-58.4s14.8-39.2 26.2-55.8c10.9-15.4 23-28.2 36.5-38.3 13.4-10.1 27.1-17.9 40.9-23.6 13.7-5.8 27.6-9.8 41.7-12 14-2.3 27.6-3.5 40.9-3.5 16.6 0 32.5 2 47.7 6 15.2 4 29.4 9.2 42.5 15.4 13.1 6.3 24.9 13.3 35.2 21 10.4 7.8 18.6 15.6 24.9 23.6 14.3 18.3 25 38.6 32.2 60.6s12.2 42.8 15.1 62.4c3.5 22.9 4.9 45.9 4.3 68.8 4 2.3 7.2 5.8 9.5 10.4 2.3 4 4.1 9.2 5.6 15.4 1.4 6.3 1.5 14 0.4 23.2-1.7 12-4.4 21.6-8.2 28.8s-7.9 12.8-12.5 16.8c-5.2 4.6-10.6 7.8-16.3 9.5-2.3 9.2-4.9 18-7.8 26.7-2.9 7.5-6.1 14.8-9.9 21.9-3.7 7.2-7.9 12.8-12.5 16.8-5.2 4.6-10.1 8.4-14.6 11.6-4.6 3.2-8.6 6.4-12 9.9-3.5 3.5-6.3 7.6-8.6 12.5s-4 10.7-5.2 17.7c-1.7 8.6-2.3 17.4-1.7 26.2 0.6 8.9 2.9 17.7 6.9 26.7s10.6 17.4 19.8 25.3c9.2 8.1 21.5 15.2 36.9 21.5 14.3 5.8 29.9 10.7 46.8 15.1 16.9 4.3 33.2 9.5 49 15.4 15.7 6 29.8 13.6 42.1 22.7 12.5 9.1 21.3 21.1 26.5 36.1z" fill="#FEAC33" p-id="1873"></path><path d="M714.7 928c65.1-6.7 111.3-16.4 127.4-28.8 21.5-16.5 21-67.3 20.1-96.7-38.7 52.4-89.1 95.5-147.5 125.5zM175.7 798.4c-4.4 38.8-5.6 88.6 18.4 104.9 19.2 13 70.2 23.7 142.4 29.8-64.2-30.8-119.4-77.4-160.8-134.7zM458.9 93.1c-7.4 2.1-14.8 4.6-22.2 7.7-13.7 5.8-27.3 13.6-40.9 23.6-10.8 8.1-20.8 17.8-29.9 29.4 47.9-18.7 100-29 154.4-29 52.7 0 103 9.6 149.5 27.1-0.1-0.2-0.2-0.3-0.4-0.5-6.3-8.1-14.6-15.9-24.9-23.6-10.3-7.8-22.1-14.8-35.2-21-13.1-6.3-27.3-11.4-42.5-15.4-8.5-2.3-17.4-3.8-26.3-4.8H539c-27.2-0.1-54 2.2-80.1 6.5z" fill="#FEAC33" p-id="1874"></path><path d="M501.9 896.4c-128.3 0-241.1-65.8-306.6-165.6-7.9 9.9-12.9 22.5-15.4 37.8-1.2 8.2-2.9 18.6-4.1 29.8 41.3 57.3 96.7 103.9 160.9 134.8 48.6 4.1 107 6.1 171.5 5.3 78.4-1 149.7-4.6 206.6-10.5 58.3-30 108.8-73.1 147.5-125.5-0.2-6.9-0.5-12.6-0.5-16.4 0-20-3.5-24.5-6.4-33.1-5.2-14.9-13.9-27-26.2-36.1-2.8-2-5.7-4-8.5-5.9-63.3 110.7-182.3 185.4-318.8 185.4zM366 153.8c-2.2 2.9-4.4 5.8-6.6 8.8-8.2 11.9-15 24.7-20.3 38.7 49-24.3 104.3-38 162.8-38 75.6 0 145.8 22.8 204.1 62.1-1.2-4.3-2.6-8.7-4-13.2-7.1-21.9-17.7-41.9-31.8-60.1-46.6-17.5-97-27.1-149.6-27.1-54.6-0.1-106.7 10.2-154.6 28.8z" fill="#FEB133" p-id="1875"></path><path d="M483.3 817.9c-98.4 0-186.1-46.2-242.5-118.1-13 5.6-24.7 12.5-35.1 20.6-3.8 3.1-7.3 6.5-10.4 10.4 65.5 99.8 178.3 165.6 306.6 165.6 136.5 0 255.5-74.6 318.7-185.3-10.2-6.5-21.3-12.2-33.6-16.9-15-5.8-30.5-10.6-46.5-14.9-55.2 83.6-149.8 138.6-257.2 138.6zM339.1 201.4c-2.2 5.6-4.1 11.3-5.9 17.2-2.6 8.8-4.8 17.6-6.7 26 45.9-27.1 99.5-42.8 156.7-42.8 95.6 0 181.1 43.6 237.6 111.9-0.7-13-1.9-26.2-3.9-39.2-2.3-15.5-5.9-31.9-10.9-49.1-58.3-39.2-128.5-62.1-204.1-62.1-58.5 0-113.8 13.7-162.8 38.1z" fill="#FEB633" p-id="1876"></path><path d="M483.3 201.7c-57.3 0-110.8 15.6-156.7 42.8-2.5 11.2-4.4 22.1-5.8 32.5-0.4 3.2-0.8 6.3-1.2 9.5 40.9-29.2 90.9-46.4 145-46.4 121.7 0 223 87.1 245.2 202.4 2.1-1.3 4.2-3 6.3-4.8 4.6-4 8.7-9.6 12.5-16.8 3.7-7.2 6.4-16.8 8.2-28.8 1.2-9.2 1-16.9-0.4-23.2-1.4-6.3-3.3-11.4-5.6-15.4-2.3-4.6-5.5-8.1-9.5-10.4 0.3-9.9 0.1-19.7-0.4-29.5-56.5-68.4-142-111.9-237.6-111.9zM464.7 739.3c-61.7 0-118.2-22.4-161.7-59.5-16.7 4.5-32.9 9.5-48.7 14.8-4.6 1.5-9.1 3.3-13.4 5.1 56.4 71.8 144.1 118.1 242.5 118.1 107.4 0 202.1-55.1 257.2-138.4-0.9-0.2-1.6-0.5-2.5-0.7-16.9-4.3-32.5-9.3-46.8-15.1-12.9-5.3-23.5-11-32-17.6-46 57-116.1 93.3-194.6 93.3z" fill="#FFBC34" p-id="1877"></path><path d="M464.7 240.1c-54.1 0-104.2 17.2-145 46.4-1.5 14-2.3 27.9-2.4 41.9 34-31 79.2-49.9 128.8-49.9 105.6 0 191.2 85.6 191.2 191.2S551.7 660.9 446 660.9c-24.9 0-48.7-4.8-70.6-13.4-3.5 2.6-7.5 5.2-11.7 7.8-14.9 9.8-32.2 17.2-52 22.4-3 0.8-5.9 1.6-8.8 2.4 43.5 37.1 100 59.5 161.7 59.5 78.6 0 148.7-36.4 194.4-93.1-1.7-1.3-3.4-2.6-4.9-3.9-9.2-8.1-15.7-16.5-19.8-25.3-4-8.9-6.3-17.7-6.9-26.7-0.6-8.9 0-17.7 1.7-26.2 1.2-6.9 2.9-12.8 5.2-17.7 2.3-4.9 5.2-9 8.6-12.5 3.5-3.5 7.5-6.7 12-9.9 4.6-3.2 9.5-7 14.6-11.6 4.6-4 8.7-9.6 12.5-16.8 3.7-7.1 7-14.4 9.9-21.9 2.9-8.6 5.5-17.5 7.8-26.7 3.5-1.1 6.8-2.6 10.1-4.7-22.1-115.3-123.4-202.5-245.1-202.5z" fill="#FFC134" p-id="1878"></path><path d="M637.2 469.7c0-105.6-85.6-191.2-191.2-191.2-49.6 0-94.9 18.9-128.8 49.9 0 4.6 0 9.3 0.1 13.9-4.6 5.8-8.1 11.7-10.3 18-2.3 5.8-3.8 12.5-4.7 20.2-0.7 6.2-0.2 13 1.5 20.5 19.4-49.3 67.4-84.2 123.6-84.2 73.3 0 132.8 59.4 132.8 132.8s-59.4 132.8-132.8 132.8c-6.2 0-12.4-0.5-18.3-1.2 0.1 3.6 0.2 7.1 0.2 10.5 0 7.5-1.2 14.6-3.8 21.5s-7.2 13.7-13.7 20.6c-4.2 4.4-9.7 9-16.2 13.7 21.9 8.7 45.7 13.4 70.6 13.4 105.5 0 191-85.6 191-191.2z" fill="#FFC634" p-id="1879"></path><path d="M560.2 449.7c0-73.3-59.4-132.8-132.8-132.8-56.2 0-104.3 34.9-123.6 84.2 0.4 1.8 0.9 3.7 1.4 5.7 2.9 9.8 6.3 17.2 10.3 22.4 4 5.2 7.8 9.2 11.1 12 4 2.9 8.1 4.9 12 6 2.8 8.9 5.7 17.7 8.6 26.7 2.9 7.4 6 14.8 9.5 21.9 3.5 7.2 7.5 12.8 12 16.8 9.8 8.1 18.5 15.7 26.2 23.2 7.8 7.5 12.2 18 13.3 31.8 0.3 4.7 0.6 9.2 0.7 13.6 5.9 0.9 12.1 1.2 18.3 1.2 73.5-0.1 133-59.5 133-132.7z" fill="#FFCB34" p-id="1880"></path><path d="M479.9 947.7c-66.5 0-127.6-3-178-8.9-39.4-4.6-91-13.1-112.9-28-32.6-22.1-26.8-88.4-18.1-143.6 3.8-23.5 13.6-41.5 29.1-53.8 14.5-11.5 31.7-20.6 51.2-27.3 18.2-6.2 37.2-11.9 58.2-17.4 18.9-5 35.5-12.1 49.3-21.2l0.2-0.1c11.6-7.2 20.2-13.8 26.2-20.1 5.8-6 9.6-11.7 11.8-17.6 2.2-5.9 3.3-11.9 3.3-18.3 0-7.3-0.3-14.9-0.8-23.4-1-11.6-4.5-20.1-10.6-26-7.2-6.9-15.6-14.4-25.7-22.8l-0.2-0.1c-5.6-4.9-10.4-11.6-14.2-19.8-3.5-7.3-6.8-14.8-9.7-22.4l-0.1-0.4c-2.4-7.2-4.9-14.7-7.4-22.6-3.4-1.4-6.8-3.4-10.1-5.8l-0.4-0.4c-4-3.3-8.2-7.8-12.5-13.4-4.9-6.2-8.7-14.6-11.8-25.4-3.2-10.7-4.3-20.7-3.3-29.7 1-8.7 2.7-16 5.2-22.4 2.2-6.1 5.4-12 9.6-17.7-0.4-21.1 0.8-42.5 3.6-63.6 2.4-18.8 6.7-39 12.8-59.8 6.3-21.4 15.5-41.1 27.4-58.4l0.1-0.1c11.7-16.5 24.3-29.7 38.5-40.3 14-10.5 28.4-18.8 42.8-24.7 14.4-6 29.1-10.3 43.7-12.6 14.4-2.4 28.6-3.6 42.3-3.6 17.3 0 34.1 2.1 50 6.3 15.5 4.1 30.4 9.5 44 16 13.8 6.7 26.2 14 36.7 21.9 10.8 8.1 19.7 16.6 26.6 25.2 14.9 19.1 26.2 40.4 33.7 63.4 7.3 22.3 12.5 43.8 15.4 63.8 3.3 21.7 4.8 43.7 4.5 65.5 3.4 2.8 6.2 6.4 8.3 10.7 2.6 4.7 4.7 10.5 6.4 17.7 1.7 7.3 1.8 16 0.5 26.4v0.2c-1.9 13.2-4.9 23.6-9.1 31.6-4.3 8.3-9.1 14.6-14.5 19.4-4.7 4.2-9.6 7.4-14.7 9.5-2 7.6-4.2 15.1-6.8 22.7l-0.1 0.4c-3.1 8-6.6 15.7-10.3 22.8-4.3 8.2-9 14.6-14.5 19.4-5.1 4.5-10.2 8.6-15.3 12.2-4.4 3-7.9 5.9-10.7 8.8l-0.1 0.1c-2.8 2.8-5 6-6.9 9.9-1.9 4.1-3.4 9.3-4.4 15.3l-0.1 0.3c-1.6 7.8-2.1 15.8-1.6 23.8 0.5 7.8 2.5 15.5 6.1 23.5 3.5 7.8 9.4 15.2 17.4 22.2 8.3 7.3 19.9 14 34.5 20 13.5 5.5 28.9 10.4 45.6 14.7 16.8 4.3 33.6 9.6 50 15.7 16.6 6.4 31.5 14.4 44.3 23.9 13.8 10.1 23.7 23.7 29.4 40.4v0.1c0.5 1.5 1 2.8 1.6 4.3 2.6 6.8 5.3 13.8 5.3 31.6 0 2.6 0.1 6.4 0.3 10.7 1.1 31.2 3.1 89.2-23.5 109.5-16 12.2-56.3 22.1-119.7 29.2-58.6 6.6-134.5 10.7-219.6 11.7-9.4 0.8-18.8 0.9-28.2 0.9z m-111.4-285c-15.4 10.1-33.8 18-54.6 23.5-20.6 5.4-39.2 10.9-56.9 17-17.5 6-33 14.2-45.9 24.3-12 9.5-19.4 23.4-22.5 42.5-3.4 21.9-6.9 47.5-6.5 71.7 0.4 28.2 6.3 47 17 54.2 26.1 17.7 133.9 35.7 308.9 33.6 172.9-2.2 301.9-16.8 328.7-37.3 19.2-14.7 17.3-70.7 16.4-94.6-0.2-4.5-0.3-8.4-0.3-11.4 0-14.5-1.9-19.4-4.1-25.2-0.6-1.6-1.2-3.2-1.8-5-4.6-13.3-12.2-23.7-23.1-31.7-11.5-8.6-25-15.8-40-21.6-15.7-5.9-31.9-11-48-15.1-17.5-4.5-33.6-9.7-47.9-15.4-16.7-6.8-29.6-14.4-39.5-23.1-10-8.7-17.4-18.2-22-28.4-4.5-10-7-19.8-7.7-29.8-0.6-9.5 0-19.1 1.9-28.4 1.3-7.7 3.2-14.2 5.9-19.9 2.7-5.7 6.2-10.8 10.4-15 3.6-3.7 8-7.3 13.3-11 4.5-3.1 9.1-6.8 13.7-10.9 3.8-3.3 7.3-8.1 10.5-14.2 3.4-6.5 6.6-13.5 9.4-20.8 2.9-8.6 5.3-17.1 7.5-25.8l1.2-5 4.9-1.5c4.4-1.3 8.7-3.8 12.9-7.6 3.8-3.3 7.3-8.1 10.5-14.2 3.2-6.2 5.6-14.8 7.2-25.8 1-8.1 0.9-14.9-0.2-20-1.3-5.5-2.8-9.8-4.6-13l-0.2-0.4c-1.5-3-3.4-5.2-5.9-6.6l-4.7-2.7 0.1-5.4c0.6-22.3-0.9-44.9-4.2-67.2-2.8-19.1-7.8-39.5-14.7-60.9-6.9-21-17.2-40.5-30.8-57.9-5.9-7.4-13.7-14.8-23.2-21.9-9.6-7.2-21-14-33.7-20.1-12.6-6-26.4-11-40.9-14.9-14.3-3.8-29.6-5.7-45.4-5.7-12.7 0-25.9 1.1-39.4 3.3-13.3 2.1-26.6 5.9-39.7 11.4-13.1 5.4-26.2 12.9-38.9 22.5-12.7 9.4-24 21.3-34.6 36.2-10.8 15.7-19.2 33.6-24.9 53.2-5.8 19.9-9.9 39.1-12.2 57-2.8 21.3-3.9 42.8-3.4 64l0.1 3.2-2 2.5c-4.1 5.2-7 10.3-8.9 15.6l-0.1 0.3c-2 4.9-3.3 10.8-4.1 17.9-0.7 6.5 0.2 14.2 2.7 22.7 2.4 8.5 5.4 15 8.7 19.4 3.5 4.5 6.7 8 9.6 10.4 3 2.1 6 3.6 8.9 4.5l4.7 1.3 1.4 4.6c2.9 9.2 5.7 18 8.5 26.3 2.8 7.1 5.8 14.2 9.1 21.1 2.8 6 6 10.6 9.7 13.8 10.4 8.7 19.1 16.4 26.6 23.6 9.3 9 14.7 21.6 16.1 37.6v0.2c0.6 8.9 0.9 17 0.9 24.7 0 8.7-1.4 16.7-4.4 24.6-3.1 8.1-8.2 15.9-15.6 23.7-7.4 7.5-17 15-29.9 23z" fill="#FFA820" p-id="1881"></path><path d="M542.4 661.1l19.4-19.4c4.3-4.3 3.1-11.4-2.2-14.3l-30.4-15.7c-7-3.7-15.4-3.7-22.5 0l-30.4 15.7c-5.4 2.7-6.5 10-2.2 14.3l19.4 19.4c6 6 8.3 14.9 5.8 23.1l-44.5 145.5c-3.1 10.3-0.8 21.4 6.1 29.7l46.8 55.6c5.5 6.5 15.5 6.5 21 0l46.8-55.6c6.9-8.2 9.2-19.4 6.1-29.7l-44.5-145.5c-3-8.2-0.8-17.2 5.3-23.1zM606.2 418.7c14.2 0 24.4 13.8 20.1 27.3-13.2 43.1-56.8 74.7-108.6 74.7S422.4 489 409.1 446c-4.1-13.6 5.9-27.3 20.1-27.3h177z" fill="#FFE3B4" p-id="1882"></path><path d="M385.2 294.6c-9.9 0-18-8-18-18 0-3.5 0.8-87.5 88.6-134.7 8.8-4.7 19.7-1.4 24.4 7.3 4.7 8.7 1.4 19.7-7.3 24.4-69 37.1-69.7 102.2-69.7 102.9 0.1 10-8 18.1-18 18.1 0.1 0 0.1 0 0 0zM374.7 365.1c-9.8-1.2-16.9-10.1-15.7-20l1.2-10.4c1.2-9.8 10.1-16.9 20-15.7 9.8 1.2 16.9 10.1 15.7 20l-1.2 10.4c-1.1 9.8-10 16.8-20 15.7z" fill="#FFFFFF" p-id="1883"></path></svg>