<?xml version="1.0" standalone="no"?><!DOCTYPE svg PUBLIC "-//W3C//DTD SVG 1.1//EN" "http://www.w3.org/Graphics/SVG/1.1/DTD/svg11.dtd"><svg t="1607669225855" class="icon" viewBox="0 0 1024 1024" version="1.1" xmlns="http://www.w3.org/2000/svg" p-id="1448" xmlns:xlink="http://www.w3.org/1999/xlink" width="200" height="200"><defs><style type="text/css"></style></defs><path d="M511.488 64c141.376 0 256 114.624 256 256 0 89.6-46.037333 168.469333-115.754667 214.186667A449.514667 449.514667 0 0 1 912.64 758.4c13.290667 26.282667 24.618667 63.936 33.962667 112.938667A74.666667 74.666667 0 0 1 873.28 960H150.72a74.666667 74.666667 0 0 1-73.365333-88.661333c9.344-48.96 20.672-86.592 33.92-112.853334A449.728 449.728 0 0 1 371.605333 534.4 255.68 255.68 0 0 1 255.488 320c0-141.376 114.602667-256 256-256zM512 576c-146.773333 0-278.656 82.773333-343.573333 211.328-10.176 20.117333-19.882667 52.394667-28.202667 96a10.666667 10.666667 0 0 0 10.474667 12.672h722.581333a10.666667 10.666667 0 0 0 10.496-12.672c-8.341333-43.626667-18.069333-75.946667-28.224-96.064A384.533333 384.533333 0 0 0 512 576z m-0.512-448a192 192 0 1 0 0 384 192 192 0 0 0 0-384z" p-id="1449"></path></svg>